{
    "asset" : {
        "generator" : "Khronos glTF Blender I/O v3.4.50",
        "version" : "2.0"
    },
    "scene" : 0,
    "scenes" : [
        {
            "name" : "Scene",
            "nodes" : [
                0
            ]
        }
    ],
    "nodes" : [
        {
            "mesh" : 0,
            "name" : "Text",
            "rotation" : [
                0.7071080803871155,
                0,
                0,
                0.7071055769920349
            ]
        }
    ],
    "meshes" : [
        {
            "name" : "Text.032",
            "primitives" : [
                {
                    "attributes" : {
                        "POSITION" : 0,
                        "TEXCOORD_0" : 1,
                        "NORMAL" : 2
                    },
                    "indices" : 3
                }
            ]
        }
    ],
    "accessors" : [
        {
            "bufferView" : 0,
            "componentType" : 5126,
            "count" : 19810,
            "max" : [
                2.4957730770111084,
                0.22705313563346863,
                0.15000000596046448
            ],
            "min" : [
                -2.4957728385925293,
                -0.22705313563346863,
                -0.15000000596046448
            ],
            "type" : "VEC3"
        },
        {
            "bufferView" : 1,
            "componentType" : 5126,
            "count" : 19810,
            "type" : "VEC2"
        },
        {
            "bufferView" : 2,
            "componentType" : 5126,
            "count" : 19810,
            "type" : "VEC3"
        },
        {
            "bufferView" : 3,
            "componentType" : 5123,
            "count" : 36972,
            "type" : "SCALAR"
        }
    ],
    "bufferViews" : [
        {
            "buffer" : 0,
            "byteLength" : 237720,
            "byteOffset" : 0,
            "target" : 34962
        },
        {
            "buffer" : 0,
            "byteLength" : 158480,
            "byteOffset" : 237720,
            "target" : 34962
        },
        {
            "buffer" : 0,
            "byteLength" : 237720,
            "byteOffset" : 396200,
            "target" : 34962
        },
        {
            "buffer" : 0,
            "byteLength" : 73944,
            "byteOffset" : 633920,
            "target" : 34963
        }
    ],
    "buffers" : [
        {
            "byteLength" : 707864,
            "uri" : "data:application/octet-stream;base64,"
        }
    ]
}
